<svg width="46" height="32" viewBox="0 0 46 32" fill="none" xmlns="http://www.w3.org/2000/svg">
<path d="M40.1436 31.4795C39.0498 31.4795 38.1156 31.0807 37.3408 30.2832C36.5889 29.4629 36.2129 28.5173 36.2129 27.4463C36.2129 26.0791 36.7028 24.8714 37.6826 23.8232C38.6624 22.7751 39.8587 22.251 41.2715 22.251C42.388 22.251 43.2881 22.627 43.9717 23.3789C44.6781 24.1309 45.0312 25.0651 45.0312 26.1816C45.0312 27.6172 44.5413 28.859 43.5615 29.9072C42.5817 30.9554 41.4424 31.4795 40.1436 31.4795Z" fill="#C15F3C"/>
<path d="M19.7217 31.7529C18.9925 31.7529 18.2747 31.7074 17.5684 31.6162C16.862 31.5479 16.0872 31.3883 15.2441 31.1377C14.401 30.887 13.4554 30.5225 12.4072 30.0439C11.359 29.5654 10.1172 28.9274 8.68164 28.1299C6.92708 29.2464 5.5485 30.1123 4.5459 30.7275C3.56608 31.3428 2.88249 31.6504 2.49512 31.6504C1.97103 31.6504 1.42415 31.3428 0.854492 30.7275C0.284831 30.1123 0 29.4287 0 28.6768C0 27.9476 0.330404 27.3438 0.991211 26.8652C3.361 25.5892 5.63965 24.2448 7.82715 22.832C10.0374 21.4193 12.1224 19.8812 14.082 18.2178C15.9505 16.6227 17.4658 15.0049 18.6279 13.3643C19.79 11.7008 20.3711 10.0944 20.3711 8.54492C20.3711 7.51953 20.1204 6.80176 19.6191 6.3916C19.1178 5.95866 18.457 5.74219 17.6367 5.74219C16.6569 5.74219 15.5745 5.98145 14.3896 6.45996C13.2048 6.93848 12.0426 7.47396 10.9033 8.06641C9.78678 8.65885 8.77279 9.20573 7.86133 9.70703C6.97266 10.1855 6.31185 10.4248 5.87891 10.4248C5.14974 10.4248 4.53451 10.14 4.0332 9.57031C3.55469 9.00065 3.31543 8.37402 3.31543 7.69043C3.31543 6.84733 3.8737 5.97005 4.99023 5.05859C6.10677 4.14714 7.49674 3.31543 9.16016 2.56348C10.8919 1.78874 12.6465 1.1735 14.4238 0.717773C16.2012 0.239258 17.8076 0 19.2432 0C21.5218 0 23.4359 0.603841 24.9854 1.81152C26.5576 3.01921 27.3438 5.09277 27.3438 8.03223C27.3438 9.28548 27.1387 10.5387 26.7285 11.792C26.3411 13.0225 25.6234 14.3099 24.5752 15.6543C23.527 16.9759 22.1029 18.3545 20.3027 19.79C18.5254 21.2028 16.2467 22.6953 13.4668 24.2676C14.4466 24.7005 15.4948 25.0651 16.6113 25.3613C17.7279 25.6576 18.7305 25.8057 19.6191 25.8057C20.9408 25.8057 22.0345 25.7487 22.9004 25.6348C23.7891 25.5208 24.8031 25.3841 25.9424 25.2246C26.1702 25.179 26.3184 25.1562 26.3867 25.1562C26.8652 25.1562 27.264 25.3385 27.583 25.7031C27.902 26.0677 28.0615 26.512 28.0615 27.0361C28.0615 28.0387 27.6058 28.8932 26.6943 29.5996C25.8057 30.306 24.7119 30.8415 23.4131 31.2061C22.137 31.5706 20.9066 31.7529 19.7217 31.7529Z" fill="#C15F3C"/>
</svg>
