<svg width="40" height="40" viewBox="0 0 40 40" fill="none" xmlns="http://www.w3.org/2000/svg">
<path d="M34.9482 31.4111C33.8545 31.4111 32.9202 31.0124 32.1455 30.2148C31.3936 29.3945 31.0176 28.4489 31.0176 27.3779C31.0176 26.0107 31.5075 24.8031 32.4873 23.7549C33.4671 22.7067 34.6634 22.1826 36.0762 22.1826C37.1927 22.1826 38.0928 22.5586 38.7764 23.3105C39.4827 24.0625 39.8359 24.9967 39.8359 26.1133C39.8359 27.5488 39.346 28.7907 38.3662 29.8389C37.3864 30.887 36.2471 31.4111 34.9482 31.4111Z" fill="#C15F3C"/>
<path d="M2.56348 39.7852C1.69759 39.7852 1.04818 39.6029 0.615234 39.2383C0.205078 38.8737 0 38.4408 0 37.9395C0 37.4154 0.227865 36.8799 0.683594 36.333C1.13932 35.8089 1.81152 35.4216 2.7002 35.1709C4.18131 34.8519 5.74219 34.3506 7.38281 33.667C9.04622 33.0062 10.6641 32.1175 12.2363 31.001C13.7402 29.93 14.9935 28.6882 15.9961 27.2754C16.9987 25.8626 17.5114 24.3473 17.5342 22.7295C17.5342 21.5902 17.2493 20.6104 16.6797 19.79C16.1328 18.9697 14.7998 18.5596 12.6807 18.5596C12.4984 18.5596 12.3047 18.571 12.0996 18.5938C11.9173 18.5938 11.735 18.6051 11.5527 18.6279C11.1426 18.6963 10.7096 18.7305 10.2539 18.7305C9.61589 18.7305 9.14876 18.5368 8.85254 18.1494C8.55632 17.762 8.4082 17.3405 8.4082 16.8848C8.4082 15.5632 9.53613 14.7087 11.792 14.3213C13.3643 14.0706 14.7201 13.6605 15.8594 13.0908C16.9987 12.4984 17.9443 11.8831 18.6963 11.2451C19.4255 10.5843 19.9609 9.95768 20.3027 9.36523C20.6673 8.77279 20.8496 8.30566 20.8496 7.96387C20.8496 7.30306 20.6104 6.76758 20.1318 6.35742C19.6761 5.92448 19.1178 5.70801 18.457 5.70801C16.2467 5.70801 14.4124 5.99284 12.9541 6.5625C11.5186 7.13216 10.1969 7.41699 8.98926 7.41699C8.32845 7.41699 7.7474 7.21191 7.24609 6.80176C6.74479 6.36881 6.49414 5.84473 6.49414 5.22949C6.49414 4.72819 6.71061 4.19271 7.14355 3.62305C8.44238 2.64323 10.2083 1.80013 12.4414 1.09375C14.6745 0.364583 16.7936 0 18.7988 0C20.9408 0 22.7865 0.512695 24.3359 1.53809C25.9082 2.56348 26.6943 4.36361 26.6943 6.93848C26.6943 8.71582 25.9538 10.402 24.4727 11.9971C22.9915 13.5693 20.861 14.834 18.0811 15.791C20.3597 16.3151 21.8978 17.2038 22.6953 18.457C23.5156 19.6875 23.9258 20.9408 23.9258 22.2168C23.9258 24.8372 23.3447 27.1501 22.1826 29.1553C21.0205 31.1377 19.4938 32.8239 17.6025 34.2139C15.6429 35.6038 13.5124 36.7204 11.2109 37.5635C8.9095 38.4066 6.60807 39.0674 4.30664 39.5459C3.94206 39.6143 3.62305 39.6712 3.34961 39.7168C3.07617 39.7624 2.81413 39.7852 2.56348 39.7852Z" fill="#C15F3C"/>
</svg>
