<svg width="27" height="31" viewBox="0 0 27 31" fill="none" xmlns="http://www.w3.org/2000/svg">
<path d="M21.7178 30.5908C20.624 30.5908 19.6898 30.1921 18.915 29.3945C18.1631 28.5742 17.7871 27.6286 17.7871 26.5576C17.7871 25.1904 18.277 23.9827 19.2568 22.9346C20.2367 21.8864 21.4329 21.3623 22.8457 21.3623C23.9622 21.3623 24.8623 21.7383 25.5459 22.4902C26.2523 23.2422 26.6055 24.1764 26.6055 25.293C26.6055 26.7285 26.1156 27.9704 25.1357 29.0186C24.1559 30.0667 23.0166 30.5908 21.7178 30.5908Z" fill="#C15F3C"/>
<path d="M2.63184 30.8643C1.90267 30.8643 1.27604 30.6706 0.751953 30.2832C0.250651 29.9186 0 29.3604 0 28.6084C0 28.3577 0.0227865 28.0615 0.0683594 27.7197C0.113932 27.3779 0.239258 27.0475 0.444336 26.7285C1.60645 24.8372 2.64323 23.0029 3.55469 21.2256C4.48893 19.4255 5.44596 17.6253 6.42578 15.8252L11.1084 7.31445C10.6755 7.47396 9.85514 7.82715 8.64746 8.37402C7.43978 8.89811 5.79915 9.50195 3.72559 10.1855C3.63444 10.2539 3.47493 10.2881 3.24707 10.2881C2.88249 10.2881 2.55208 10.14 2.25586 9.84375C1.98242 9.52474 1.8457 9.11458 1.8457 8.61328C1.8457 8.18034 1.98242 7.70182 2.25586 7.17773C2.5293 6.65365 3.01921 6.10677 3.72559 5.53711C4.50033 5.01302 5.26367 4.52311 6.01562 4.06738C6.76758 3.61165 7.53092 3.17871 8.30566 2.76855C9.53613 2.10775 10.8919 1.48112 12.373 0.888672C13.877 0.296224 15.1986 0 16.3379 0C16.9987 0 17.5684 0.182292 18.0469 0.546875C18.5482 0.888672 18.7988 1.49251 18.7988 2.3584C18.7988 2.63184 18.776 2.95085 18.7305 3.31543C18.6849 3.65723 18.571 4.02181 18.3887 4.40918C17.8874 5.43457 17.238 6.87012 16.4404 8.71582C15.6657 10.5387 14.777 12.6009 13.7744 14.9023C12.749 17.2493 11.7806 19.4482 10.8691 21.499C9.95768 23.527 9.14876 25.2474 8.44238 26.6602C7.78158 27.9818 6.8929 29.0186 5.77637 29.7705C4.68262 30.4997 3.63444 30.8643 2.63184 30.8643Z" fill="#C15F3C"/>
</svg>
